<?xml version="1.0" encoding="utf-8"?>
<!-- Generator: Adobe Illustrator 22.1.0, SVG Export Plug-In . SVG Version: 6.00 Build 0)  -->
<svg version="1.1" id="Layer_1" xmlns="http://www.w3.org/2000/svg" xmlns:xlink="http://www.w3.org/1999/xlink" x="0px" y="0px"
	 viewBox="0 0 800 800" style="enable-background:new 0 0 800 800;" xml:space="preserve">
<style type="text/css">
	.st0{fill:#303030;}
	.st1{fill:#CEAC7A;}
</style>
<g>
	<g>
		<path class="st0" d="M330.7,65.1c0.7,2,2.5,3.3,4.5,3.3c0.5,0,0.9-0.1,1.5-0.3c2.5-0.8,3.9-3.5,3.1-6L325.7,19
			c-0.8-2.5-3.6-3.9-6-3.1c-2.5,0.8-3.9,3.5-3.1,6L330.7,65.1z"/>
		<path class="st0" d="M465.7,68.2c0.5,0.1,0.9,0.3,1.5,0.3c2,0,3.9-1.3,4.5-3.3l14.1-43.2c0.8-2.5-0.5-5.2-3.1-6
			c-2.5-0.8-5.2,0.5-6,3.1l-14.1,43.2C461.8,64.7,463.2,67.4,465.7,68.2z"/>
		<path class="st0" d="M401.3,68.4c2.7,0,4.8-2.1,4.8-4.8V8.4c0-2.7-2.1-4.8-4.8-4.8c-2.7,0-4.8,2.1-4.8,4.8v55.3
			C396.5,66.3,398.6,68.4,401.3,68.4z"/>
		<path class="st0" d="M548.3,175.5c0-0.1,0-0.3,0.1-0.3v-0.1V175v-0.1c0-0.1,0-0.3,0-0.4c0-0.1,0-0.1,0-0.3V174c0-0.1,0-0.1,0-0.3
			s0-0.3,0-0.4c0-0.1,0-0.1,0-0.3c0,0,0,0,0-0.1l0,0c0-0.1,0-0.3-0.1-0.4c0-0.1-0.1-0.3-0.1-0.4l0,0c0,0,0,0,0-0.1l0,0
			c0-0.1-0.1-0.1-0.1-0.1c0-0.1-0.1-0.3-0.1-0.3c0-0.1-0.1-0.1-0.1-0.3c0,0,0-0.1-0.1-0.1c0-0.1-0.1-0.1-0.1-0.3
			c-0.1-0.1-0.1-0.1-0.3-0.3l-0.1-0.1l-79.4-79.2l0,0l0,0l0,0c-0.1-0.1-0.3-0.1-0.3-0.3c0,0,0,0-0.1-0.1l0,0c-0.1,0-0.1-0.1-0.3-0.1
			l-0.1-0.1c-0.1-0.1-0.3-0.1-0.4-0.3h-0.1h-0.1c0,0-0.1,0-0.1-0.1c-0.1,0-0.3-0.1-0.4-0.1c-0.1,0-0.1,0-0.3,0
			c-0.3,0-0.4-0.1-0.7-0.1h-0.1c-0.1,0-0.1,0-0.3,0c0,0,0,0-0.1,0H338.2c0,0,0,0-0.1,0s-0.1,0-0.3,0s-0.1,0-0.3,0
			c-0.3,0-0.4,0-0.7,0.1c-0.1,0-0.1,0-0.3,0.1c-0.1,0-0.3,0.1-0.4,0.1c-0.1,0-0.1,0-0.3,0.1l0,0c0,0-0.1,0-0.1,0.1
			c-0.1,0-0.3,0.1-0.3,0.1c-0.1,0-0.1,0.1-0.3,0.1l-0.1,0.1l0,0l-0.1,0.1c-0.1,0.1-0.1,0.1-0.3,0.3l0,0L255.3,171l-0.1,0.1
			c-0.1,0.1-0.1,0.1-0.3,0.3c0,0.1-0.1,0.1-0.1,0.3c0,0,0,0.1-0.1,0.1c0,0.1-0.1,0.1-0.1,0.3s-0.1,0.3-0.1,0.3l-0.1,0.1l0,0
			c0,0,0,0,0,0.1l0,0c0,0.1-0.1,0.3-0.1,0.4c0,0.1-0.1,0.3-0.1,0.4l0,0c0,0,0,0,0,0.1c0,0.1,0,0.1,0,0.3s0,0.3,0,0.4
			c0,0.1,0,0.1,0,0.3v0.1c0,0.1,0,0.1,0,0.3s0,0.3,0,0.4v0.1v0.1v0.1c0,0.1,0,0.3,0.1,0.3c0,0.1,0,0.3,0.1,0.3v0.1l0,0
			c0,0,0,0.1,0.1,0.1c0,0.1,0.1,0.3,0.1,0.3l0.1,0.1c0,0,0,0.1,0.1,0.1c0,0.1,0.1,0.1,0.1,0.3c0.1,0.1,0.1,0.1,0.3,0.3l0.1,0.1
			l142.5,144.9c0,0,0.1,0,0.1,0.1c0,0,0,0,0.1,0.1l0,0c0.1,0.1,0.3,0.3,0.5,0.4c0,0,0,0,0.1,0l0,0l0,0c0.3,0.1,0.5,0.3,0.7,0.4
			c0,0,0.1,0,0.3,0.1c0.3,0.1,0.4,0.1,0.7,0.1c0.1,0,0.1,0,0.3,0c0.3,0,0.5,0.1,0.8,0.1l0,0l0,0l0,0l0,0l0,0l0,0l0,0l0,0l0,0l0,0
			l0,0c0.3,0,0.5,0,0.8-0.1c0.1,0,0.1,0,0.3,0c0.3,0,0.4-0.1,0.7-0.1c0.1,0,0.1,0,0.3-0.1c0.3-0.1,0.5-0.3,0.7-0.4l0,0l0,0
			c0,0,0,0,0.1,0c0.1-0.1,0.4-0.3,0.5-0.4c0,0,0,0,0.1-0.1c0,0,0,0,0.1-0.1l142.5-145.1l0.1-0.1c0.1-0.1,0.1-0.1,0.3-0.3
			c0-0.1,0.1-0.1,0.1-0.3l0.1-0.1l0.1-0.1c0-0.1,0.1-0.3,0.1-0.3s0-0.1,0.1-0.1l0,0V176C548.2,175.8,548.2,175.6,548.3,175.5z
			 M294.3,179l66.4,92.3L270.1,179H294.3z M435.7,179l-34.4,122.6L366.8,179L435.7,179L435.7,179z M364.1,169.4l-14.9-53l42.1,53
			H364.1z M411.1,169.4l42.1-53l-14.9,53H411.1z M445.6,179h50.5l-82.9,115.4L445.6,179z M448.3,169.4l17.3-61.6l32,61.6H448.3z
			 M401.3,166.5l-53.1-66.9h106.3L401.3,166.5z M354.1,169.4h-49.4l32.1-61.6L354.1,169.4z M356.9,179l32.4,115.6L306.1,179H356.9z
			 M507.8,179h24.4l-90.9,92.6L507.8,179z M508.3,169.4L482.7,120l49.4,49.4H508.3z M319.6,120.1l-25.6,49.1h-23.6L319.6,120.1z"/>
	</g>
	<path class="st1" d="M477.5,317.2l2.5-2.8c9.7-10.4,2.4-27.2-11.8-27.2l0,0l-30.3,32.9c64.4,12.9,118.6,59.2,148,122.6
		C548.4,379.7,479.6,337.3,401,337.3c-78.5,0-147.3,42.4-184.9,105.5c29.4-63.2,83.6-109.6,148-122.6l-30.3-32.9
		c-14.1,0-21.5,16.9-11.8,27.2l2.5,2.8c-99.4,32.4-171.1,126.2-170,236.6c1.3,135.5,110.8,243.9,246.3,243.9
		c136,0,246.3-110.3,246.3-246.3C647.5,442.1,576.2,349.4,477.5,317.2z M401.3,346.9c113.2,0,205.4,92.1,205.4,205.4
		s-92.1,205.4-205.4,205.4s-205.4-92.1-205.4-205.4S287.9,346.9,401.3,346.9z M401.3,786.3c-77.7,0-145.5-48-181.3-118.9
		c38.1,59.9,105.2,99.8,181.3,99.8s143.2-39.9,181.3-99.8C546.7,738.3,479,786.3,401.3,786.3z"/>
</g>
</svg>
